HIERARCHY
ROOT hip
{
	OFFSET 0.000000 0.000000 0.000000 
	CHANNELS 6 Xposition Yposition Zposition Xrotation Zrotation Yrotation
	JOINT abdomen
	{
		OFFSET 0.000000 3.402643 0.000000 
		CHANNELS 3 Xrotation Zrotation Yrotation
		JOINT chest
		{
			OFFSET 0.000000 8.438565 -0.680529 
			CHANNELS 3 Xrotation Zrotation Yrotation
			JOINT neck
			{
				OFFSET 0.000000 10.207942 -0.272212 
				CHANNELS 3 Xrotation Zrotation Yrotation
				JOINT head
				{
					OFFSET 0.000000 3.130431 0.000000 
					CHANNELS 3 Xrotation Zrotation Yrotation
					End Site
					{
						OFFSET 0.000000 3.130435 0.000000 
					}
				}
			}
			JOINT lCollar
			{
				OFFSET 3.470700 6.669187 -0.816635 
				CHANNELS 3 Yrotation Zrotation Xrotation
				JOINT lShldr
				{
					OFFSET 3.198488 0.000000 0.000000 
					CHANNELS 3 Zrotation Yrotation Xrotation
					JOINT lForeArm
					{
						OFFSET 10.139888 0.000000 0.000000 
						CHANNELS 3 Yrotation Zrotation Xrotation
						JOINT lHand
						{
							OFFSET 8.370511 0.000000 0.000000 
							CHANNELS 3 Zrotation Yrotation Xrotation
							End Site
							{
								OFFSET 4.083176 0.000000 0.000000 
							}
						}
					}
				}
			}
			JOINT rCollar
			{
				OFFSET -3.470700 6.669187 -0.816635 
				CHANNELS 3 Yrotation Zrotation Xrotation
				JOINT rShldr
				{
					OFFSET -3.198488 0.000000 0.000000 
					CHANNELS 3 Zrotation Yrotation Xrotation
					JOINT rForeArm
					{
						OFFSET -10.139888 0.000000 0.000000 
						CHANNELS 3 Yrotation Zrotation Xrotation
						JOINT rHand
						{
							OFFSET -8.370511 0.000000 0.000000 
							CHANNELS 3 Zrotation Yrotation Xrotation
							End Site
							{
								OFFSET -4.083176 0.000000 0.000000 
							}
						}
					}
				}
			}
		}
	}
	JOINT lThigh
	{
		OFFSET 5.308129 -1.633274 1.361059 
		CHANNELS 3 Xrotation Zrotation Yrotation
		JOINT lShin
		{
			OFFSET -2.041588 -20.007561 0.000000 
			CHANNELS 3 Xrotation Zrotation Yrotation
			JOINT lFoot
			{
				OFFSET 0.000000 -19.190928 -1.224953 
				CHANNELS 3 Xrotation Yrotation Zrotation
				End Site
				{
					OFFSET 0.000000 -2.449906 4.627600 
				}
			}
		}
	}
	JOINT rThigh
	{
		OFFSET -5.308129 -1.633274 1.361059 
		CHANNELS 3 Xrotation Zrotation Yrotation
		JOINT rShin
		{
			OFFSET 2.041588 -20.007561 0.000000 
			CHANNELS 3 Xrotation Zrotation Yrotation
			JOINT rFoot
			{
				OFFSET 0.000000 -19.190928 -1.224953 
				CHANNELS 3 Xrotation Yrotation Zrotation
				End Site
				{
					OFFSET 0.000000 -2.449906 4.627600 
				}
			}
		}
	}
}
MOTION
Frames: 11
Frame Time: 0.011111
-4.129178 51.228088 142.620682 -0.872074 4.567174 171.453232 47.001469 6.432259 8.209558 -29.520679 5.643623 1.400186 -16.198994 -2.755207 -2.397328 28.011143 -3.086442 -5.281772 2.656661 -4.973740 1.830115 -72.515556 -22.279242 31.491762 -66.226028 9.426700 15.258927 8.524705 12.647240 -39.417370 -4.438679 -1.473473 2.444106 57.432652 50.625473 -11.814518 50.122742 -7.737051 8.208475 -8.534408 -12.637552 38.519390 -31.543726 9.080020 -5.008873 39.286797 -4.712808 -6.026906 -11.772595 4.063115 -2.286731 7.423937 2.742042 4.640519 28.932877 5.394859 4.715868 -32.983109 -4.652144 -1.528476 
-4.090855 51.203873 142.431824 178.893616 175.155823 -8.092735 47.440857 6.707771 8.528067 -30.750467 6.012280 1.304316 -15.703595 -2.956537 -2.455713 28.012436 -3.149714 -5.360786 2.656661 -4.973740 1.830115 -72.711151 -21.405664 31.715250 -66.673500 9.412905 15.471931 8.524705 12.647240 -39.436901 -4.438679 -1.473473 2.444106 57.396954 49.844437 -14.349010 48.622597 -7.382748 7.613578 -8.534408 -12.637552 42.367046 -32.238255 9.295211 -5.586298 37.673599 -4.835828 -5.809637 -10.704569 4.272052 -2.345192 8.004298 3.153302 4.751075 28.032354 5.433834 4.605771 -32.940624 -5.001405 -1.709823 
-4.121513 51.287262 142.013016 -1.229690 4.652941 171.100098 46.978912 6.271441 9.005519 -29.904604 5.920724 1.579957 -15.606030 -2.959346 -2.449856 27.483677 -3.141212 -5.380647 2.656661 -4.973740 1.830115 -72.686386 -21.601559 31.737522 -67.140427 9.390442 15.688507 8.524705 12.647240 -39.270885 -4.438679 -1.473473 2.444106 57.620911 50.179924 -18.168451 47.086941 -6.984056 7.013967 -8.534408 -12.637552 43.910015 -32.102688 9.266169 -5.899254 36.027588 -4.952509 -5.614278 -11.227922 5.157138 -2.139554 8.701379 2.656586 5.207828 27.023058 5.462900 4.464096 -32.606472 -4.695844 -1.457898 
-4.140829 51.311481 141.666870 -1.286950 4.590466 170.891418 46.953918 6.234709 9.253773 -29.934263 5.979566 1.637675 -15.149291 -3.115400 -2.451827 27.142904 -3.212416 -5.394180 2.656661 -4.973740 1.830115 -72.829399 -21.393337 31.523245 -67.341743 9.380473 15.797246 8.524705 12.647240 -39.153702 -4.438679 -1.473473 2.444106 57.891804 49.858929 -21.535570 46.063843 -6.699940 6.614042 -8.534408 -12.637552 45.277203 -32.081593 9.236729 -6.349414 34.429314 -5.050262 -5.434038 -11.315409 5.767274 -2.016837 9.422722 2.402187 5.291690 26.184565 5.531355 4.326008 -32.341431 -4.625917 -1.343688 
-4.150026 51.311794 141.336365 -1.509595 4.632970 170.871460 46.778778 6.436821 9.470738 -29.491009 5.804953 1.726046 -15.266511 -3.107305 -2.396974 26.826887 -3.133537 -5.317989 2.656661 -4.973740 1.830115 -72.767830 -21.697485 31.241671 -67.478951 9.370380 15.851585 8.524705 12.647240 -38.880260 -4.438679 -1.473473 2.444106 58.439671 49.881302 -24.569721 45.445347 -6.522800 6.383551 -8.534408 -12.637552 46.898293 -32.334496 9.294978 -6.947804 32.877003 -5.152164 -5.247643 -11.813042 6.059609 -1.912049 9.966842 2.362765 5.338557 25.438961 5.561938 4.264927 -32.048306 -4.783793 -1.363841 
-4.137150 51.301979 141.045105 -1.703932 4.530519 171.082550 46.864658 6.314392 9.627969 -29.274057 5.698324 1.810189 -15.948689 -3.030801 -2.452343 27.008678 -3.005754 -5.485060 2.656661 -4.973740 1.830115 -72.524460 -22.239979 31.286966 -67.511703 9.371034 15.875209 8.524705 12.647240 -38.479870 -4.438679 -1.473473 2.444106 59.039963 49.764835 -27.481983 45.208820 -6.455186 6.295359 -8.534408 -12.637552 48.118996 -32.628361 9.197822 -7.422611 31.481152 -5.245228 -5.061187 -12.277402 6.018643 -1.865961 10.332183 2.256037 5.377692 24.908012 5.571056 4.180603 -32.034164 -4.819709 -1.378646 
-4.105877 51.281742 140.782349 -1.947600 4.465494 171.416031 46.682346 6.452706 9.514416 -29.343630 5.782450 1.753107 -15.178992 -3.134649 -2.404530 26.010391 -2.751372 -5.325031 2.656661 -4.973740 1.830115 -72.479576 -22.026039 30.872051 -67.776489 9.354380 16.001808 8.524705 12.647240 -38.245499 -4.438679 -1.473473 2.444106 59.691689 49.089008 -29.250706 45.239777 -6.464148 6.303588 -8.534408 -12.637552 49.202984 -33.075436 9.120688 -7.979230 30.273949 -5.313770 -4.894137 -12.679396 5.812484 -1.843079 10.644245 2.265676 5.359368 24.445719 5.581320 4.122060 -31.775085 -5.016088 -1.404584 
-4.092081 51.269787 140.480652 -2.210427 4.482762 171.598633 46.901516 6.432755 9.681759 -30.080816 5.967443 1.713608 -15.228185 -3.173362 -2.462135 26.115671 -2.961711 -5.475297 2.656661 -4.973740 1.830115 -72.633621 -21.465939 30.531397 -68.051041 9.333982 16.130011 8.524705 12.647240 -38.069714 -4.438679 -1.473473 2.444106 60.167797 47.890472 -30.231169 45.589264 -6.562619 6.437526 -8.534408 -12.637552 50.980328 -33.405716 9.120457 -8.700272 29.123808 -5.376390 -4.757995 -13.325158 5.757064 -1.775890 10.998859 2.265351 5.560852 24.025774 5.625188 4.073469 -31.475393 -5.058683 -1.360631 
-4.075524 51.259975 140.125946 -2.365916 4.596519 171.580826 47.002647 6.471419 9.990588 -29.480841 5.853344 1.868270 -16.300138 -3.037197 -2.472577 26.380363 -3.205801 -5.674074 2.656661 -4.973740 1.830115 -72.563980 -22.239130 30.223612 -67.978409 9.342603 16.100805 8.524705 12.647240 -37.552135 -4.438679 -1.473473 2.444106 60.846836 47.613735 -31.145006 46.228199 -6.741975 6.679016 -8.534408 -12.637552 53.031109 -33.577885 9.276308 -9.352133 28.124046 -5.416127 -4.638692 -13.542195 6.008797 -1.700012 11.554729 2.333695 6.157001 23.635118 5.625509 4.009289 -31.460415 -4.791683 -1.219977 
-4.066633 51.257828 139.769058 -2.501339 4.412754 171.625885 46.973526 6.280615 9.962049 -29.392797 5.891780 1.891415 -16.583481 -3.051524 -2.463596 26.395681 -3.098404 -5.683188 2.656661 -4.973740 1.830115 -72.596062 -22.336124 29.648256 -67.923462 9.341593 16.067413 8.524705 12.647240 -37.054089 -4.438679 -1.473473 2.444106 61.613171 46.697933 -31.313084 47.118015 -6.991984 7.022902 -8.534408 -12.637552 55.472515 -33.795574 9.071836 -9.710993 27.299997 -5.469234 -4.519095 -13.446911 6.343854 -1.628658 11.972919 2.070549 6.538687 23.229017 5.649487 3.938063 -31.430748 -4.714454 -1.172909 
-4.056209 51.232693 139.425995 -2.501812 4.225274 171.810013 47.036732 6.217528 9.679626 -29.639624 6.028523 1.798259 -16.107519 -3.188509 -2.368118 25.881788 -2.978456 -5.474413 2.656661 -4.973740 1.830115 -72.624817 -21.905704 28.962133 -67.956093 9.341733 16.089558 8.524705 12.647240 -36.311897 -4.438679 -1.473473 2.444106 62.293346 45.324924 -30.756216 48.123096 -7.252690 7.415882 -8.534408 -12.637552 58.138535 -33.900146 8.807704 -9.908797 26.759394 -5.484909 -4.455122 -13.100703 6.469345 -1.658035 12.593847 1.806797 6.779336 22.719521 5.679682 3.878479 -31.292557 -4.962547 -1.255246 
